<svg width="102" height="216" viewBox="0 0 102 216" fill="none" xmlns="http://www.w3.org/2000/svg">
<circle cx="35.272" cy="101.272" r="30.2956" transform="rotate(5.94806 35.272 101.272)" fill="#FC38B9" fill-opacity="0.21"/>
<circle cx="68.9184" cy="116.918" r="28.1526" transform="rotate(5.94806 68.9184 116.918)" fill="#B0DEFF" fill-opacity="0.73"/>
<path d="M53.64 159.008C46.632 159.008 40.296 157.808 34.632 155.408C29.064 153.008 24.648 149.552 21.384 145.04C18.12 140.528 16.44 135.2 16.344 129.056H37.944C38.232 133.184 39.672 136.448 42.264 138.848C44.952 141.248 48.6 142.448 53.208 142.448C57.912 142.448 61.608 141.344 64.296 139.136C66.984 136.832 68.328 133.856 68.328 130.208C68.328 127.232 67.416 124.784 65.592 122.864C63.768 120.944 61.464 119.456 58.68 118.4C55.992 117.248 52.248 116 47.448 114.656C40.92 112.736 35.592 110.864 31.464 109.04C27.432 107.12 23.928 104.288 20.952 100.544C18.072 96.704 16.632 91.616 16.632 85.28C16.632 79.328 18.12 74.144 21.096 69.728C24.072 65.312 28.248 61.952 33.624 59.648C39 57.248 45.144 56.048 52.056 56.048C62.424 56.048 70.824 58.592 77.256 63.68C83.784 68.672 87.384 75.68 88.056 84.704H65.88C65.688 81.248 64.2 78.416 61.416 76.208C58.728 73.904 55.128 72.752 50.616 72.752C46.68 72.752 43.512 73.76 41.112 75.776C38.808 77.792 37.656 80.72 37.656 84.56C37.656 87.248 38.52 89.504 40.248 91.328C42.072 93.056 44.28 94.496 46.872 95.648C49.56 96.704 53.304 97.952 58.104 99.392C64.632 101.312 69.96 103.232 74.088 105.152C78.216 107.072 81.768 109.952 84.744 113.792C87.72 117.632 89.208 122.672 89.208 128.912C89.208 134.288 87.816 139.28 85.032 143.888C82.248 148.496 78.168 152.192 72.792 154.976C67.416 157.664 61.032 159.008 53.64 159.008Z" fill="#6A5F83"/>
</svg>
