<svg width="269" height="274" viewBox="0 0 269 274" fill="none" xmlns="http://www.w3.org/2000/svg">
<rect y="5" width="269" height="269" rx="10" fill="#9A38FC"/>
<circle cx="107.92" cy="98.9205" r="70.2655" transform="rotate(50.4548 107.92 98.9205)" fill="#FC38B9" fill-opacity="0.21"/>
<circle cx="150.013" cy="146.441" r="47.8513" transform="rotate(50.4548 150.013 146.441)" fill="#B0DEFF" fill-opacity="0.44"/>
<path d="M105.9 247.33C96.6533 247.33 88.2933 245.747 80.82 242.58C73.4733 239.413 67.6467 234.853 63.34 228.9C59.0333 222.947 56.8167 215.917 56.69 207.81H85.19C85.57 213.257 87.47 217.563 90.89 220.73C94.4367 223.897 99.25 225.48 105.33 225.48C111.537 225.48 116.413 224.023 119.96 221.11C123.507 218.07 125.28 214.143 125.28 209.33C125.28 205.403 124.077 202.173 121.67 199.64C119.263 197.107 116.223 195.143 112.55 193.75C109.003 192.23 104.063 190.583 97.73 188.81C89.1167 186.277 82.0867 183.807 76.64 181.4C71.32 178.867 66.6967 175.13 62.77 170.19C58.97 165.123 57.07 158.41 57.07 150.05C57.07 142.197 59.0333 135.357 62.96 129.53C66.8867 123.703 72.3967 119.27 79.49 116.23C86.5833 113.063 94.69 111.48 103.81 111.48C117.49 111.48 128.573 114.837 137.06 121.55C145.673 128.137 150.423 137.383 151.31 149.29H122.05C121.797 144.73 119.833 140.993 116.16 138.08C112.613 135.04 107.863 133.52 101.91 133.52C96.7167 133.52 92.5367 134.85 89.37 137.51C86.33 140.17 84.81 144.033 84.81 149.1C84.81 152.647 85.95 155.623 88.23 158.03C90.6367 160.31 93.55 162.21 96.97 163.73C100.517 165.123 105.457 166.77 111.79 168.67C120.403 171.203 127.433 173.737 132.88 176.27C138.327 178.803 143.013 182.603 146.94 187.67C150.867 192.737 152.83 199.387 152.83 207.62C152.83 214.713 150.993 221.3 147.32 227.38C143.647 233.46 138.263 238.337 131.17 242.01C124.077 245.557 115.653 247.33 105.9 247.33Z" fill="white"/>
<path d="M160.752 205.824C160.752 197.76 162.336 190.608 165.504 184.368C168.768 178.128 173.136 173.328 178.608 169.968C184.176 166.608 190.368 164.928 197.184 164.928C203.136 164.928 208.32 166.128 212.736 168.528C217.248 170.928 220.848 173.952 223.536 177.6V166.224H243.84V246H223.536V234.336C220.944 238.08 217.344 241.2 212.736 243.696C208.224 246.096 202.992 247.296 197.04 247.296C190.32 247.296 184.176 245.568 178.608 242.112C173.136 238.656 168.768 233.808 165.504 227.568C162.336 221.232 160.752 213.984 160.752 205.824ZM223.536 206.112C223.536 201.216 222.576 197.04 220.656 193.584C218.736 190.032 216.144 187.344 212.88 185.52C209.616 183.6 206.112 182.64 202.368 182.64C198.624 182.64 195.168 183.552 192 185.376C188.832 187.2 186.24 189.888 184.224 193.44C182.304 196.896 181.344 201.024 181.344 205.824C181.344 210.624 182.304 214.848 184.224 218.496C186.24 222.048 188.832 224.784 192 226.704C195.264 228.624 198.72 229.584 202.368 229.584C206.112 229.584 209.616 228.672 212.88 226.848C216.144 224.928 218.736 222.24 220.656 218.784C222.576 215.232 223.536 211.008 223.536 206.112Z" fill="white"/>
</svg>
